<?xml version="1.0" encoding="UTF-8" standalone="no"?>
<svg width="271px" height="87px" viewBox="0 0 271 87" version="1.1" xmlns="http://www.w3.org/2000/svg" xmlns:xlink="http://www.w3.org/1999/xlink" xmlns:sketch="http://www.bohemiancoding.com/sketch/ns">
    <!-- Generator: Sketch 3.3.1 (12002) - http://www.bohemiancoding.com/sketch -->
    <title>logo-horzontal-red</title>
    <desc>Created with Sketch.</desc>
    <defs></defs>
    <g id="Page-1" stroke="none" stroke-width="1" fill="none" fill-rule="evenodd" sketch:type="MSPage">
        <g id="logo-horzontal-red" sketch:type="MSArtboardGroup" fill="#FFFFFF">
            <g id="Oval-1-Copy-8-+-Oval-1-Copy-9" sketch:type="MSLayerGroup" transform="translate(1.000000, 0.500000)">
                <g id="Oval-1-Copy-8" transform="translate(0.000000, 0.500000)" sketch:type="MSShapeGroup">
                    <path d="M84.8431211,22.9795735 C87.1941525,28.3831113 88.4982547,34.3502524 88.4982547,40.6229811 C88.4982547,65.0021759 68.7995651,84.7654182 44.5,84.7654182 C20.2004349,84.7654182 0.501745312,65.0021759 0.501745312,40.6229811 C0.501745312,22.5834999 11.2874049,7.07139969 26.7418698,0.22357957 C27.3972415,-0.0668133936 28.9596729,-0.322557023 29.5453479,1.14901552 C30.1310229,2.62058806 28.8030259,3.5115659 28.1490858,3.80432458 C14.1152575,10.0870477 4.33382734,24.2089834 4.33382734,40.6229811 C4.33382734,62.87884 22.3168354,80.9207784 44.5,80.9207784 C66.6831646,80.9207784 84.6661727,62.87884 84.6661727,40.6229811 C84.6661727,34.9018154 83.4778273,29.4591121 81.3352679,24.5297699 C80.9866941,23.7278135 80.311009,21.9618718 81.9624738,21.206839 C83.6139387,20.4518062 84.4580521,22.0945426 84.8431211,22.9795735 Z M69.4740338,12.5072948 C77.1827245,19.4044332 82.0367809,29.4449867 82.0367809,40.6229811 C82.0367809,61.4219083 65.2309916,78.2827701 44.5,78.2827701 C23.7690084,78.2827701 6.96321912,61.4219083 6.96321912,40.6229811 C6.96321912,29.338766 11.9099668,19.2137118 19.7464972,12.3115244 C20.3243144,11.8025999 21.8583396,10.8455945 22.8832732,12.3115244 C23.9082069,13.7774544 22.5693879,14.8570101 21.95438,15.4109545 C15.069853,21.6119241 10.7392983,30.6100677 10.7392983,40.6229811 C10.7392983,59.3296032 25.8544793,74.4943167 44.5,74.4943167 C63.1455207,74.4943167 78.2607017,59.3296032 78.2607017,40.6229811 C78.2607017,30.6969521 74.0049754,21.7681585 67.2242579,15.5730069 C66.5417002,14.9493933 65.747498,13.6855474 66.6260121,12.5072948 C67.5045262,11.3290422 68.7914852,11.8966032 69.4740338,12.5072948 Z M53.8899889,10.9833789 C66.4153914,14.9739862 75.4908461,26.7351675 75.4908461,40.6229811 C75.4908461,57.7948412 61.6157717,71.7153843 44.5,71.7153843 C27.3842283,71.7153843 13.5091539,57.7948412 13.5091539,40.6229811 C13.5091539,35.6746055 14.6613488,30.9962212 16.711262,26.843139 C17.0417152,26.1736476 18.1622539,25.2388795 19.4800271,25.8999242 C20.7978002,26.5609689 20.546609,28.1141685 20.2403806,28.742399 C18.4919809,32.3292575 17.5106037,36.3611373 17.5106037,40.6229811 C17.5106037,55.5776596 29.594168,67.7008217 44.5,67.7008217 C59.405832,67.7008217 71.4893963,55.5776596 71.4893963,40.6229811 C71.4893963,28.6070077 63.6882428,18.4190621 52.8900956,14.8790475 C52.2099707,14.6560784 50.886947,13.6321334 51.2896003,12.2365925 C51.6922537,10.8410517 53.1631459,10.7518059 53.8899889,10.9833789 Z M41.0293834,20.6275642 C40.5901539,18.3934755 42.0744401,16.3692344 44.3416627,16.2098573 C44.3416627,16.2098573 43.044656,16.2085034 44.5,16.2085034 C57.9397018,16.2085034 68.8347327,27.1392374 68.8347327,40.6229811 C68.8347327,54.1067248 57.9397018,65.0374588 44.5,65.0374588 C31.0602982,65.0374588 20.1652673,54.1067248 20.1652673,40.6229811 C20.1652673,39.0135505 20.5049617,37.5766743 22.2619921,37.5766743 C24.0190225,37.5766743 24.3609109,39.2961475 24.3609109,40.6229811 C24.3609109,51.7819414 33.3774882,60.8280661 44.5,60.8280661 C55.6225118,60.8280661 64.6390891,51.7819414 64.6390891,40.6229811 C64.6390891,29.4640208 55.6225118,20.4178962 44.5,20.4178962 C43.3224444,20.4178962 43.7783948,20.4431295 43.7783948,20.4431295 C42.2695274,20.5926475 40.8070369,19.4966251 40.5158978,18.0157806 L41.0293834,20.6275642 Z M30.918603,48.5066667 C30.918603,49.2671509 31.5252366,49.8836451 32.2971209,49.8836451 L40.2524024,49.8836451 C41.0137367,49.8836451 41.6309202,49.2696241 41.6309202,48.506045 L41.6309202,48.2978327 C41.6309202,47.5370052 41.0142464,46.9202326 40.2507231,46.9202326 L33.6021367,46.9202326 L33.6021367,32.7429784 C33.6021367,31.9804603 32.9797351,31.3623172 32.2289248,31.3623172 L32.291815,31.3623172 C31.533411,31.3623172 30.918603,31.9785549 30.918603,32.7392956 L30.918603,48.5066667 Z M43.0710625,48.5066667 C43.0710625,49.2671509 43.6833438,49.8836451 44.4528645,49.8836451 L44.3291595,49.8836451 C45.0923076,49.8836451 45.7109614,49.2633022 45.7109614,48.5176826 L45.7109614,36.6541252 L49.1580213,42.915226 C49.8930786,44.2503546 51.0908882,44.262039 51.8368326,42.9352251 L55.3978633,36.6012071 L55.3978633,48.5122188 C55.3978633,49.2696366 56.0202649,49.8836451 56.7710752,49.8836451 L56.708185,49.8836451 C57.466589,49.8836451 58.081397,49.2674074 58.081397,48.5066667 L58.081397,32.7392956 C58.081397,31.9788114 57.4752733,31.3623172 56.7025911,31.3623172 L56.6021304,31.3623172 C55.840637,31.3623172 54.932628,31.9101657 54.5771659,32.5800715 L50.5762297,40.1202594 L46.5752935,32.5800715 C46.21843,31.9075244 45.3230113,31.3623172 44.5503291,31.3623172 L44.4498684,31.3623172 C43.6883749,31.3623172 43.0710625,31.9785549 43.0710625,32.7392956 L43.0710625,48.5066667 Z"></path>
                </g>
                <g id="Oval-1-Copy-9" transform="translate(102.000000, 10.255000)" sketch:type="MSShapeGroup">
                    <path d="M0,64.9883763 L19.9532122,64.9883763 L19.9532122,59.4609964 L6.10893573,59.4609964 L6.10893573,37.351477 L0,37.351477 L0,64.9883763 Z M29.016278,65.3831891 C31.9517406,65.3831891 33.9748297,64.3171944 35.442561,62.6984617 L35.442561,64.9883763 L41.2738179,64.9883763 L41.2738179,52.7096967 C41.2738179,49.8670443 40.5597864,47.5376485 38.9730499,45.9583971 C37.4656501,44.4581083 35.0855453,43.58952 31.793067,43.58952 C28.1832413,43.58952 25.8824733,44.2607018 23.5420369,45.2872152 L25.0494366,49.8670443 C26.9931889,49.1563811 28.6195939,48.722087 30.9203619,48.722087 C33.9351613,48.722087 35.4822295,50.103932 35.4822295,52.5912529 L35.4822295,52.9465844 C33.9748297,52.4333278 32.4277616,52.0779962 30.2856672,52.0779962 C25.2477787,52.0779962 21.7172898,54.2099856 21.7172898,58.8292959 L21.7172898,58.9082584 C21.7172898,63.0932746 25.0097682,65.3831891 29.016278,65.3831891 L29.016278,65.3831891 Z M30.841025,61.2376542 C28.8972728,61.2376542 27.5485467,60.2901034 27.5485467,58.6713707 L27.5485467,58.5924081 C27.5485467,56.6973065 29.1352832,55.6707931 31.7137301,55.6707931 C33.1814614,55.6707931 34.5301875,55.9866434 35.5615663,56.4604188 L35.5615663,57.5264135 C35.5615663,59.6978841 33.6574824,61.2376542 30.841025,61.2376542 L30.841025,61.2376542 Z M57.13885,64.9883763 L63.1287804,64.9883763 L63.1287804,47.063873 L70.8641211,58.7503333 L71.0227948,58.7503333 L78.8374723,46.9454292 L78.8374723,64.9883763 L84.9067396,64.9883763 L84.9067396,37.351477 L78.3217829,37.351477 L71.0227948,49.0379373 L63.7238067,37.351477 L57.13885,37.351477 L57.13885,64.9883763 Z M97.0639418,65.3831891 C100.11841,65.3831891 101.903488,63.7644564 103.291883,61.9877986 L103.291883,64.9883763 L109.321482,64.9883763 L109.321482,43.8264077 L103.291883,43.8264077 L103.291883,55.6313118 C103.291883,58.4739643 101.824151,59.9347718 99.5233834,59.9347718 C97.2226154,59.9347718 95.8738893,58.4739643 95.8738893,55.6313118 L95.8738893,43.8264077 L89.8442904,43.8264077 L89.8442904,57.5264135 C89.8442904,62.3826115 92.5020742,65.3831891 97.0639418,65.3831891 L97.0639418,65.3831891 Z M123.858789,65.4621517 C127.706625,65.4621517 130.562751,63.9618629 132.546171,61.5140232 L129.095019,58.4739643 C127.428946,60.0137344 125.961215,60.6454349 123.938125,60.6454349 C121.240673,60.6454349 119.336589,59.2241087 118.741563,56.4999001 L133.537882,56.4999001 C133.57755,55.9471621 133.617218,55.3944241 133.617218,54.9206487 C133.617218,48.9194934 130.364408,43.4315949 123.263762,43.4315949 C117.07549,43.4315949 112.751633,48.4062367 112.751633,54.4468733 L112.751633,54.5258358 C112.751633,61.0007665 117.472174,65.4621517 123.858789,65.4621517 L123.858789,65.4621517 Z M118.662226,52.749178 C119.138247,50.0249694 120.764652,48.2483116 123.263762,48.2483116 C125.802541,48.2483116 127.389277,50.0644507 127.746293,52.749178 L118.662226,52.749178 Z M137.444054,64.9883763 L143.473652,64.9883763 L143.473652,36.1670385 L137.444054,36.1670385 L137.444054,64.9883763 Z M154.24246,65.3831891 C157.177923,65.3831891 159.201012,64.3171944 160.668743,62.6984617 L160.668743,64.9883763 L166.5,64.9883763 L166.5,52.7096967 C166.5,49.8670443 165.785969,47.5376485 164.199232,45.9583971 C162.691832,44.4581083 160.311727,43.58952 157.019249,43.58952 C153.409423,43.58952 151.108655,44.2607018 148.768219,45.2872152 L150.275619,49.8670443 C152.219371,49.1563811 153.845776,48.722087 156.146544,48.722087 C159.161343,48.722087 160.708412,50.103932 160.708412,52.5912529 L160.708412,52.9465844 C159.201012,52.4333278 157.653944,52.0779962 155.511849,52.0779962 C150.473961,52.0779962 146.943472,54.2099856 146.943472,58.8292959 L146.943472,58.9082584 C146.943472,63.0932746 150.23595,65.3831891 154.24246,65.3831891 L154.24246,65.3831891 Z M156.067207,61.2376542 C154.123455,61.2376542 152.774729,60.2901034 152.774729,58.6713707 L152.774729,58.5924081 C152.774729,56.6973065 154.361465,55.6707931 156.939912,55.6707931 C158.407644,55.6707931 159.75637,55.9866434 160.787748,56.4604188 L160.787748,57.5264135 C160.787748,59.6978841 158.883665,61.2376542 156.067207,61.2376542 Z M14.4781932,29.1931436 C19.159066,29.1931436 23.0465706,27.2585607 25.6250175,24.9686462 L25.6250175,13.9533678 L14.1608459,13.9533678 L14.1608459,16.756539 L22.610218,16.756539 L22.610218,23.6262825 C20.7061342,25.1660526 17.7706716,26.3899724 14.5971984,26.3899724 C7.85356809,26.3899724 3.60904781,21.4942931 3.60904781,14.9009186 L3.60904781,14.821956 C3.60904781,8.66287565 8.01224175,3.49082736 14.1608459,3.49082736 C18.0880189,3.49082736 20.4681237,4.79370976 22.610218,6.64933013 L24.6333071,4.28045306 C21.8565182,1.95105727 18.960724,0.608693589 14.2798511,0.608693589 C5.94948423,0.608693589 0.356237877,7.32051197 0.356237877,14.9009186 L0.356237877,14.9798812 C0.356237877,22.8761381 5.75114216,29.1931436 14.4781932,29.1931436 Z M34.1625417,28.7193682 L37.3756832,28.7193682 L40.6681615,21.4153306 L55.7818272,21.4153306 L59.0346372,28.7193682 L62.4064523,28.7193682 L49.7522283,0.885062581 L46.8167657,0.885062581 L34.1625417,28.7193682 Z M41.8978824,18.5726781 L48.2448286,4.51734076 L54.5521064,18.5726781 L41.8978824,18.5726781 Z M71.7373448,28.7193682 L74.7918126,28.7193682 L74.7918126,6.05711086 L92.7219357,28.7193682 L95.2210458,28.7193682 L95.2210458,1.082469 L92.1665779,1.082469 L92.1665779,23.2314697 L74.6728074,1.082469 L71.7373448,1.082469 L71.7373448,28.7193682 Z M104.551938,28.7193682 L107.76508,28.7193682 L111.057558,21.4153306 L126.171224,21.4153306 L129.424034,28.7193682 L132.795849,28.7193682 L120.141625,0.885062581 L117.206162,0.885062581 L104.551938,28.7193682 Z M112.287279,18.5726781 L118.634225,4.51734076 L124.941503,18.5726781 L112.287279,18.5726781 Z M142.126741,28.7193682 L145.260546,28.7193682 L145.260546,17.9804588 L153.194229,17.9804588 L161.246917,28.7193682 L165.094753,28.7193682 L156.566044,17.4277208 C160.92957,16.6380951 164.103043,13.9533678 164.103043,9.37353877 L164.103043,9.2945762 C164.103043,7.12310555 163.309674,5.1885226 161.960948,3.84615893 C160.215538,2.1089824 157.478417,1.082469 154.066934,1.082469 L142.126741,1.082469 L142.126741,28.7193682 Z M145.260546,15.1772876 L145.260546,3.96460278 L153.828923,3.96460278 C158.311454,3.96460278 160.92957,6.01762958 160.92957,9.41302005 L160.92957,9.49198262 C160.92957,13.0452982 157.954438,15.1772876 153.789255,15.1772876 L145.260546,15.1772876 Z"></path>
                </g>
            </g>
        </g>
    </g>
</svg>